# xmcd CD database file
#
# Track frame offsets:
#	150
#	18252
#	34076
#	57518
#	74796
#	89804
#	107189
#	132001
#	152136
#	173111
#
# Disc length: 2509 seconds
#
# Revision: 0
# Processed by: cddbd v1.5.2PL0 Copyright (c) Steve Scherf et al.
# Submitted via: CDex 1.70beta2
#
DISCID=8d09cb0a
DTITLE=Österreich - Die Edition der Meisterwerke - 10 Romantik Hits für Verliebte - Valentinstag
DYEAR=2007
DGENRE=Blues
TTITLE0=Hot Chocolate - It Started With A Kiss
TTITLE1=Peabo Bryson and Roberta Flack - Tonight I Celebrate My Love For You
TTITLE2=Dr. Hook - When You`re In Love With A Beautiful Woman
TTITLE3=K.C. and The Sunshine Band - Please Don't Go
TTITLE4=George McCrae - Rock Your Baby
TTITLE5=Kenny Rogers and Sheena Easton - We've Got Tonight
TTITLE6=Spandau Ballet - True
TTITLE7=Climie Fisher - Love Changes (Everything)
TTITLE8=Mark Almond and Gene Pitney - Something's Gotten Hold Of My Heart
TTITLE9=Minnie Riperton - Lovin`You 
EXTD=YEAR: 2007
EXTT0=
EXTT1=
EXTT2=
EXTT3=
EXTT4=
EXTT5=
EXTT6=
EXTT7=
EXTT8=
EXTT9=
PLAYORDER=
